<svg
  xmlns="http://www.w3.org/2000/svg"
  width="512"
  height="512"
  viewBox="70 90 460 370"
  fill="none"
>
  <defs>
    <linearGradient
      id="flinn-logo-gradient"
      x1="182.3547363"
      y1="335.484375"
      x2="478.3340454"
      y2="209.8652649"
      gradientUnits="userSpaceOnUse"
    >
      <stop offset="0%" stop-color="rgb(72,158,217)" />
      <stop offset="100%" stop-color="rgb(93,199,195)" />
    </linearGradient>
  </defs>
  <path
    fill="url(#flinn-logo-gradient)"
    d="M484.5002441 274C484.5002441 194.7470703 420.2531738 130.5 341.0002441 130.5C288.0588378 130.5 241.8205566 159.1733398 216.9489746 201.8330078H116.0847168C116.0847168 201.8330078 129.6994629 267.7080078 197.5710449 270.7148437C197.5612793 270.7143554 197.5515136 270.7143554 197.541748 270.7138671C197.5173339 271.8066405 197.5002441 272.9013671 197.5002441 274C197.5002441 277.8715819 197.6584472 281.7060546 197.9592285 285.5H164.7512207C164.7512207 285.5 174.501709 332.7089843 218.661377 349.0283202C243.9060059 390.1035156 289.2512207 417.5 341.0002441 417.5C390.4162597 417.5 433.9963379 392.5195312 459.8068847 354.5C459.8068847 354.5 464.0002441 348.5 469.491455 337.9404297C479.0910645 318.6860352 484.5002441 296.9760742 484.5002441 274ZM134.1696777 205.8520508H225.6130371H317.0568848C321.9699707 205.8520508 327.0324707 205.8520508 332.2355957 205.8520508C395.9123535 205.8520508 408.5002441 266.8139649 408.5002441 266.8139649H385.9123535C385.9768066 266.8847657 385.9855957 266.8959962 385.9104004 266.8139649L385.9123535 266.8139649C385.7258301 266.6113282 330.8225097 217.5869141 330.8225097 217.5869141C321.8615722 209.6040039 314.5285644 212.3090821 314.5285644 223.6000977V270.8330079H285.8337402H225.6130371H219.5847168H219.5837402H210.4343261C146.7570801 270.8330078 134.1696777 205.8520508 134.1696777 205.8520508ZM371.7502441 354.5C371.7502441 354.5 330.7590332 354.5 268.2512207 354.5H268.2502441H263.0578613C203.5192871 354.5 191.7497558 291.5 191.7497558 291.5H277.2497558H314.5285644V336.0859375C314.5285644 347.375 321.8615722 350.0820313 330.8225097 342.0986328C330.8225097 342.0986328 385.9738769 292.8476562 386.6437988 292.0380859C386.6408691 292.0419922 386.6379394 292.0458984 386.6350097 292.0498047C437.7678223 297.8198242 448.2502441 348.5 448.2502441 348.5L449.1672363 354.5H371.7502441Z"
  />
</svg>
