<?xml version="1.0" encoding="UTF-8" standalone="no" ?>
<!DOCTYPE svg PUBLIC "-//W3C//DTD SVG 1.1//EN" "http://www.w3.org/Graphics/SVG/1.1/DTD/svg11.dtd">
<svg xmlns="http://www.w3.org/2000/svg" xmlns:xlink="http://www.w3.org/1999/xlink" version="1.1" width="1280" height="1024" viewBox="0 0 1280 1024" xml:space="preserve">
<desc>Created with Fabric.js 4.4.0</desc>
<defs>
</defs>
<g transform="matrix(1 0 0 1 640 512)" id="background-logo"  >
<rect style="stroke: none; stroke-width: 0; stroke-dasharray: none; stroke-linecap: butt; stroke-dashoffset: 0; stroke-linejoin: miter; stroke-miterlimit: 4; fill: rgb(242,254,255); fill-rule: nonzero; opacity: 1;"  paint-order="stroke"  x="-640" y="-512" rx="0" ry="0" width="1280" height="1024" />
</g>
<g transform="matrix(1.1578192041095074 0 0 1.1578192041095074 297.54891304347825 529.2828455120032)" id="logo-logo"  >
<g style=""  paint-order="stroke"   >
		<g transform="matrix(0.7006979525283442 0 0 0.7006979525283443 0 0)"  >
<linearGradient id="SVGID_1_56178" gradientUnits="userSpaceOnUse" gradientTransform="matrix(1 0 0 1 0 0)"  x1="182.3547363" y1="335.484375" x2="478.3340454" y2="209.8652649">
<stop offset="0%" style="stop-color:rgb(72,158,217);stop-opacity: 1"/>
<stop offset="100%" style="stop-color:rgb(93,199,195);stop-opacity: 1"/>
</linearGradient>
<path style="stroke: none; stroke-width: 1; stroke-dasharray: none; stroke-linecap: butt; stroke-dashoffset: 0; stroke-linejoin: miter; stroke-miterlimit: 4; fill: url(#SVGID_1_56178); fill-rule: nonzero; opacity: 1;"  paint-order="stroke"  transform=" translate(-300.29248044999997, -274)" d="M 484.5002441 274 C 484.5002441 194.74707030000002 420.25317379999996 130.5 341.0002441 130.5 C 288.0588378 130.5 241.82055659999997 159.1733398 216.94897459999999 201.83300780000002 L 116.0847168 201.83300780000002 C 116.0847168 201.83300780000002 129.6994629 267.7080078 197.5710449 270.7148437 C 197.5612793 270.71435540000004 197.5515136 270.71435540000004 197.541748 270.7138671 C 197.5173339 271.8066405 197.5002441 272.9013671 197.5002441 273.99999990000003 C 197.5002441 277.8715819 197.6584472 281.7060546 197.9592285 285.49999990000003 L 164.7512207 285.49999990000003 C 164.7512207 285.49999990000003 174.501709 332.70898430000005 218.66137700000002 349.02832020000005 C 243.9060059 390.1035156 289.2512207 417.5 341.0002441 417.5 C 390.41625969999996 417.5 433.99633789999996 392.5195312 459.80688469999996 354.5 C 459.80688469999996 354.5 464.0002441 348.5 469.491455 337.9404297 C 479.0910645 318.6860352 484.5002441 296.9760742 484.5002441 274 z M 134.1696777 205.8520508 L 225.61303709999999 205.8520508 L 317.0568848 205.8520508 C 321.9699707 205.8520508 327.0324707 205.8520508 332.2355957 205.8520508 C 395.9123535 205.8520508 408.5002441 266.8139649 408.5002441 266.8139649 L 385.9123535 266.8139649 C 385.9768066 266.88476569999995 385.9855957 266.89599619999996 385.9104004 266.8139649 L 385.9123535 266.8139649 C 385.7258301 266.61132819999995 330.8225097 217.58691409999997 330.8225097 217.58691409999997 C 321.8615722 209.60400389999998 314.5285644 212.30908209999998 314.5285644 223.60009769999996 L 314.5285644 270.8330079 C 308.16333 270.8330079 298.4016113 270.8330079 285.83374019999997 270.8330079 C 269.9020996 270.8330079 249.44555659999997 270.8330079 225.61303709999996 270.8330079 C 223.62426759999997 270.8330079 221.61987299999996 270.8330079 219.58471679999997 270.8330079 C 219.58422849999997 270.8330079 219.58422849999997 270.8330079 219.58374019999997 270.8330079 C 216.58325189999996 270.8330079 213.53051749999997 270.8330079 210.43432609999996 270.8330079 C 146.7570801 270.8330078 134.1696777 205.8520508 134.1696777 205.8520508 z M 371.7502441 354.5 C 371.7502441 354.5 330.7590332 354.5 268.2512207 354.5 C 268.2507324 354.5 268.2507324 354.5 268.2502441 354.5 C 266.53686519999997 354.5 264.80249019999997 354.5 263.05786129999996 354.5 C 203.51928709999996 354.5 191.74975579999995 291.5 191.74975579999995 291.5 L 277.24975579999995 291.5 L 314.52856439999994 291.5 L 314.52856439999994 336.0859375 C 314.52856439999994 347.375 321.86157219999996 350.0820313 330.82250969999996 342.0986328 C 330.82250969999996 342.0986328 385.97387689999994 292.8476562 386.64379879999996 292.0380859 C 386.6408691 292.0419922 386.63793939999994 292.0458984 386.63500969999996 292.0498047 C 437.7678223 297.8198242 448.2502441 348.5 448.2502441 348.5 L 449.16723629999996 354.5 L 371.7502441 354.5 z" stroke-linecap="round" />
</g>
</g>
</g>
<g transform="matrix(1.9211538461538462 0 0 1.9211538461538462 801.2923923076921 474.519817204311)" id="text-logo-path-group"  >
<g style=""  paint-order="stroke"   >
		<g transform="matrix(1 0 0 1 0 0)" id="text-logo-path-0"  >
<path style="stroke: none; stroke-width: 0; stroke-dasharray: none; stroke-linecap: butt; stroke-dashoffset: 0; stroke-linejoin: miter; stroke-miterlimit: 4; fill: rgb(72,159,216); fill-rule: nonzero; opacity: 1;"  paint-order="stroke"  transform=" translate(-175.415, 16.46)" d="M 2.88 -33.02 L 28.61 -33.02 L 28.61 -25.34 L 11.04 -25.34 L 11.04 -19.63 L 26.21 -19.63 L 26.21 -11.95 L 11.04 -11.95 L 11.04 0 L 2.88 0 L 2.88 -33.02 Z M 39.89 -33.02 L 48.05 -33.02 L 48.05 -7.68 L 64.18 -7.68 L 64.18 0 L 39.89 0 L 39.89 -33.02 Z M 75.22 -33.02 L 83.38 -33.02 L 83.38 0 L 75.22 0 L 75.22 -33.02 Z M 104.02 -33.02 L 117.31 -13.63 L 117.31 -33.02 L 125.47 -33.02 L 125.47 0 L 117.74 0 L 104.02 -18.91 L 104.02 0 L 95.86 0 L 95.86 -33.02 L 104.02 -33.02 Z M 146.11 -33.02 L 159.41 -13.63 L 159.41 -33.02 L 167.57 -33.02 L 167.57 0 L 159.84 0 L 146.11 -18.91 L 146.11 0 L 137.95 0 L 137.95 -33.02 L 146.11 -33.02 Z M 213.12 0.58 L 213.12 0.58 Q 209.28 0.58 206.02 -0.67 Q 202.75 -1.92 200.38 -4.18 Q 198 -6.43 196.66 -9.58 Q 195.31 -12.72 195.31 -16.46 L 195.31 -16.46 Q 195.31 -20.21 196.66 -23.35 Q 198 -26.5 200.38 -28.75 Q 202.75 -31.01 206.02 -32.26 Q 209.28 -33.5 213.12 -33.5 L 213.12 -33.5 Q 216.82 -33.5 219.22 -32.76 Q 221.62 -32.02 223.54 -30.91 L 223.54 -30.91 L 223.54 -22.56 Q 221.9 -23.76 219.41 -24.79 Q 216.91 -25.82 213.6 -25.82 L 213.6 -25.82 Q 211.44 -25.82 209.66 -25.18 Q 207.89 -24.53 206.62 -23.3 Q 205.34 -22.08 204.65 -20.35 Q 203.95 -18.62 203.95 -16.46 L 203.95 -16.46 Q 203.95 -14.3 204.65 -12.58 Q 205.34 -10.85 206.62 -9.62 Q 207.89 -8.4 209.66 -7.75 Q 211.44 -7.1 213.6 -7.1 L 213.6 -7.1 Q 216.91 -7.1 219.41 -8.14 Q 221.9 -9.17 223.54 -10.37 L 223.54 -10.37 L 223.54 -2.02 Q 221.62 -0.96 219.22 -0.19 Q 216.82 0.58 213.12 0.58 Z M 250.7 0.48 L 250.7 0.48 Q 247.01 0.48 243.89 -0.77 Q 240.77 -2.02 238.49 -4.27 Q 236.21 -6.53 234.91 -9.62 Q 233.62 -12.72 233.62 -16.46 L 233.62 -16.46 Q 233.62 -20.21 234.91 -23.35 Q 236.21 -26.5 238.49 -28.75 Q 240.77 -31.01 243.89 -32.26 Q 247.01 -33.5 250.7 -33.5 L 250.7 -33.5 Q 254.4 -33.5 257.52 -32.26 Q 260.64 -31.01 262.9 -28.75 Q 265.15 -26.5 266.45 -23.35 Q 267.74 -20.21 267.74 -16.46 L 267.74 -16.46 Q 267.74 -12.72 266.45 -9.62 Q 265.15 -6.53 262.9 -4.27 Q 260.64 -2.02 257.52 -0.77 Q 254.4 0.48 250.7 0.48 Z M 250.7 -7.68 L 250.7 -7.68 Q 252.53 -7.68 254.06 -8.28 Q 255.6 -8.88 256.7 -10.03 Q 257.81 -11.18 258.46 -12.82 Q 259.1 -14.45 259.1 -16.46 L 259.1 -16.46 Q 259.1 -18.53 258.46 -20.16 Q 257.81 -21.79 256.7 -22.94 Q 255.6 -24.1 254.06 -24.72 Q 252.53 -25.34 250.7 -25.34 L 250.7 -25.34 Q 248.88 -25.34 247.34 -24.72 Q 245.81 -24.1 244.68 -22.94 Q 243.55 -21.79 242.9 -20.16 Q 242.26 -18.53 242.26 -16.46 L 242.26 -16.46 Q 242.26 -14.45 242.9 -12.82 Q 243.55 -11.18 244.68 -10.03 Q 245.81 -8.88 247.37 -8.28 Q 248.93 -7.68 250.7 -7.68 Z M 279.26 -33.02 L 294.91 -33.02 Q 297.94 -33.02 300.38 -32.35 Q 302.83 -31.68 304.58 -30.29 Q 306.34 -28.9 307.3 -26.76 Q 308.26 -24.62 308.26 -21.74 L 308.26 -21.74 Q 308.26 -19.63 307.58 -17.93 Q 306.91 -16.22 305.69 -14.95 Q 304.46 -13.68 302.83 -12.86 Q 301.2 -12.05 299.23 -11.76 L 299.23 -11.76 L 308.83 0 L 298.61 0 L 290.21 -11.62 L 287.42 -11.62 L 287.42 0 L 279.26 0 L 279.26 -33.02 Z M 294.62 -25.34 L 287.42 -25.34 L 287.42 -17.81 L 294.62 -17.81 Q 297.02 -17.81 298.37 -18.72 Q 299.71 -19.63 299.71 -21.65 L 299.71 -21.65 Q 299.71 -23.57 298.37 -24.46 Q 297.02 -25.34 294.62 -25.34 L 294.62 -25.34 Z M 319.63 -33.02 L 334.32 -33.02 Q 337.34 -33.02 339.86 -32.28 Q 342.38 -31.54 344.18 -30.02 Q 345.98 -28.51 346.97 -26.3 Q 347.95 -24.1 347.95 -21.12 L 347.95 -21.12 Q 347.95 -18.24 346.97 -16.03 Q 345.98 -13.82 344.18 -12.31 Q 342.38 -10.8 339.86 -10.03 Q 337.34 -9.26 334.32 -9.26 L 334.32 -9.26 L 327.79 -9.26 L 327.79 0 L 319.63 0 L 319.63 -33.02 Z M 333.6 -25.34 L 327.79 -25.34 L 327.79 -16.94 L 333.6 -16.94 Q 336.24 -16.94 337.78 -17.93 Q 339.31 -18.91 339.31 -21.12 L 339.31 -21.12 Q 339.31 -23.42 337.78 -24.38 Q 336.24 -25.34 333.6 -25.34 L 333.6 -25.34 Z" stroke-linecap="round" />
</g>
</g>
</g>
<g transform="matrix(1.9211538461538462 0 0 1.9211538461538462 774.7961552345537 581.8908363303995)" id="tagline-aa8da82d-c228-4847-9973-7b878c32ec86-logo-path-group"  >
<g style=""  paint-order="stroke"   >
		<g transform="matrix(1 0 0 1 0 -17.040399999999977)" id="tagline-aa8da82d-c228-4847-9973-7b878c32ec86-logo-path-0"  >
<path style="stroke: none; stroke-width: 0; stroke-dasharray: none; stroke-linecap: butt; stroke-dashoffset: 0; stroke-linejoin: miter; stroke-miterlimit: 4; fill: rgb(76,156,219); fill-rule: nonzero; opacity: 1;"  paint-order="stroke"  transform=" translate(-130.02499999999998, 9.1)" d="M 1.17 -17.16 L 1.17 -5.12 C 1.17 -2.03 3.46 0.26 6.55 0.26 L 7.25 0.26 C 10.24 0.26 12.64 -2.13 12.64 -5.1 L 12.64 -17.16 C 12.64 -17.89 12.06 -18.46 11.34 -18.46 C 10.61 -18.46 10.04 -17.89 10.04 -17.16 L 10.04 -5.1 C 10.04 -3.41 8.97 -2.34 7.25 -2.34 L 6.55 -2.34 C 4.73 -2.34 3.77 -3.3 3.77 -5.12 L 3.77 -17.16 C 3.77 -17.89 3.2 -18.46 2.47 -18.46 C 1.74 -18.46 1.17 -17.89 1.17 -17.16 Z M 22.78 -5.12 C 22.78 -2.03 25.06 0.26 28.16 0.26 L 28.86 0.26 C 31.85 0.26 34.24 -2.13 34.24 -5.1 C 34.24 -7.85 31.75 -9.07 29.04 -10.32 C 26.86 -11.39 25.38 -12.14 25.38 -13.6 C 25.38 -14.9 26.34 -15.86 28.16 -15.86 L 28.86 -15.86 C 30.58 -15.86 31.64 -14.79 31.64 -13.1 C 31.64 -12.38 32.21 -11.8 32.94 -11.8 C 33.67 -11.8 34.24 -12.38 34.24 -13.1 C 34.24 -16.07 31.85 -18.46 28.86 -18.46 L 28.16 -18.46 C 25.06 -18.46 22.78 -16.17 22.78 -13.6 C 22.78 -10.48 25.69 -9.05 27.95 -7.98 C 30.19 -6.94 31.64 -6.29 31.64 -5.1 C 31.64 -3.41 30.58 -2.34 28.86 -2.34 L 28.16 -2.34 C 26.34 -2.34 25.38 -3.3 25.38 -5.12 C 25.38 -5.85 24.8 -6.42 24.08 -6.42 C 23.35 -6.42 22.78 -5.85 22.78 -5.12 Z M 55.85 -5.36 L 55.85 -13.16 C 55.85 -15.96 53.61 -18.2 50.8 -18.2 L 45.94 -18.2 C 45.06 -18.2 44.38 -17.52 44.38 -16.64 L 44.38 -1.56 C 44.38 -0.68 45.06 0 45.94 0 L 50.47 0 C 53.46 0 55.85 -2.39 55.85 -5.36 Z M 46.98 -2.6 L 46.98 -15.6 L 50.8 -15.6 C 52.34 -15.6 53.25 -14.69 53.25 -13.16 L 53.25 -5.36 C 53.25 -3.67 52.18 -2.6 50.47 -2.6 Z M 77.45 -5.1 L 77.45 -13.1 C 77.45 -16.07 75.06 -18.46 72.07 -18.46 L 71.37 -18.46 C 68.28 -18.46 65.99 -16.17 65.99 -13.08 L 65.99 -5.12 C 65.99 -2.03 68.28 0.26 71.37 0.26 L 72.07 0.26 C 75.06 0.26 77.45 -2.13 77.45 -5.1 Z M 68.59 -5.12 L 68.59 -13.08 C 68.59 -14.9 69.55 -15.86 71.37 -15.86 L 72.07 -15.86 C 73.79 -15.86 74.85 -14.79 74.85 -13.1 L 74.85 -5.1 C 74.85 -3.41 73.79 -2.34 72.07 -2.34 L 71.37 -2.34 C 69.55 -2.34 68.59 -3.3 68.59 -5.12 Z M 88.11 -15.6 L 91.1 -15.6 L 91.1 -1.04 C 91.1 -0.31 91.68 0.26 92.4 0.26 C 93.13 0.26 93.7 -0.31 93.7 -1.04 L 93.7 -15.6 L 96.69 -15.6 C 97.42 -15.6 97.99 -16.17 97.99 -16.9 C 97.99 -17.63 97.42 -18.2 96.69 -18.2 L 88.11 -18.2 C 87.39 -18.2 86.81 -17.63 86.81 -16.9 C 86.81 -16.17 87.39 -15.6 88.11 -15.6 Z M 123.34 -6.01 L 123.34 -5.12 C 123.34 -2.03 125.63 0.26 128.73 0.26 L 129.43 0.26 C 132.42 0.26 134.81 -2.13 134.81 -5.1 L 134.81 -6.03 C 134.81 -7.77 133.98 -9.31 132.7 -10.3 C 133.43 -11.08 133.85 -12.12 133.85 -13.26 L 133.85 -13.99 C 133.85 -16.46 131.85 -18.46 129.35 -18.46 L 128.8 -18.46 C 126.23 -18.46 124.31 -16.54 124.31 -13.96 L 124.31 -13.29 C 124.31 -12.56 124.88 -11.99 125.61 -11.99 C 126.33 -11.99 126.91 -12.56 126.91 -13.29 L 126.91 -13.96 C 126.91 -15.26 127.5 -15.86 128.8 -15.86 L 129.35 -15.86 C 130.57 -15.86 131.25 -15.18 131.25 -13.99 L 131.25 -13.26 C 131.25 -12.06 130.57 -11.39 129.35 -11.39 L 128.73 -11.39 C 128 -11.39 127.43 -10.82 127.43 -10.09 C 127.43 -9.36 128 -8.79 128.73 -8.79 L 129.43 -8.79 C 131.14 -8.79 132.21 -7.72 132.21 -6.03 L 132.21 -5.1 C 132.21 -3.41 131.14 -2.34 129.43 -2.34 L 128.73 -2.34 C 126.91 -2.34 125.94 -3.3 125.94 -5.12 L 125.94 -6.01 C 125.94 -6.73 125.37 -7.31 124.64 -7.31 C 123.92 -7.31 123.34 -6.73 123.34 -6.01 Z M 145.63 0 L 154.49 0 C 155.22 0 155.79 -0.57 155.79 -1.3 C 155.79 -2.03 155.22 -2.6 154.49 -2.6 L 146.93 -2.6 C 147.42 -4.32 148.88 -5.38 150.67 -6.58 C 152.91 -8.09 155.79 -9.75 155.79 -13.08 C 155.79 -16.17 153.5 -18.46 150.41 -18.46 L 149.71 -18.46 C 146.72 -18.46 144.33 -16.07 144.33 -13.1 C 144.33 -12.38 144.9 -11.8 145.63 -11.8 C 146.35 -11.8 146.93 -12.38 146.93 -13.1 C 146.93 -14.79 147.99 -15.86 149.71 -15.86 L 150.41 -15.86 C 152.23 -15.86 153.19 -14.9 153.19 -13.08 C 153.19 -11.26 151.53 -10.27 149.21 -8.76 C 146.93 -7.2 144.17 -5.2 144.17 -1.3 C 144.17 -0.57 144.74 0 145.47 0 C 145.5 0 145.52 0 145.55 0 Z M 165.15 -6.01 L 165.15 -5.12 C 165.15 -2.03 167.44 0.26 170.53 0.26 L 171.24 0.26 C 174.23 0.26 176.62 -2.13 176.62 -5.1 L 176.62 -6.03 C 176.62 -7.77 175.79 -9.31 174.51 -10.3 C 175.24 -11.08 175.66 -12.12 175.66 -13.26 L 175.66 -13.99 C 175.66 -16.46 173.65 -18.46 171.16 -18.46 L 170.61 -18.46 C 168.04 -18.46 166.11 -16.54 166.11 -13.96 L 166.11 -13.29 C 166.11 -12.12 166.5 -11.08 167.18 -10.3 C 165.93 -9.33 165.15 -7.8 165.15 -6.01 Z M 167.75 -5.12 L 167.75 -6.01 C 167.75 -7.83 168.71 -8.79 170.53 -8.79 L 171.24 -8.79 C 172.95 -8.79 174.02 -7.72 174.02 -6.03 L 174.02 -5.1 C 174.02 -3.41 172.95 -2.34 171.24 -2.34 L 170.53 -2.34 C 168.71 -2.34 167.75 -3.3 167.75 -5.12 Z M 168.71 -13.29 L 168.71 -13.96 C 168.71 -15.26 169.31 -15.86 170.61 -15.86 L 171.16 -15.86 C 172.38 -15.86 173.06 -15.18 173.06 -13.99 L 173.06 -13.26 C 173.06 -12.06 172.38 -11.39 171.16 -11.39 L 170.61 -11.39 C 169.31 -11.39 168.71 -11.99 168.71 -13.29 Z M 197.44 -13.1 C 197.44 -16.07 195.05 -18.46 192.06 -18.46 L 191.36 -18.46 C 188.27 -18.46 185.98 -16.17 185.98 -13.08 L 185.98 -5.12 C 185.98 -2.03 188.27 0.26 191.36 0.26 L 192.06 0.26 C 195.05 0.26 197.44 -2.13 197.44 -5.1 L 197.44 -6.03 C 197.44 -9 195.05 -11.39 192.06 -11.39 L 191.36 -11.39 C 190.32 -11.39 189.38 -11.13 188.58 -10.69 L 188.58 -13.08 C 188.58 -14.9 189.54 -15.86 191.36 -15.86 L 192.06 -15.86 C 193.78 -15.86 194.84 -14.79 194.84 -13.1 C 194.84 -12.38 195.42 -11.8 196.14 -11.8 C 196.87 -11.8 197.44 -12.38 197.44 -13.1 Z M 188.58 -5.12 L 188.58 -6.01 C 188.58 -7.83 189.54 -8.79 191.36 -8.79 L 192.06 -8.79 C 193.78 -8.79 194.84 -7.72 194.84 -6.03 L 194.84 -5.1 C 194.84 -3.41 193.78 -2.34 192.06 -2.34 L 191.36 -2.34 C 189.54 -2.34 188.58 -3.3 188.58 -5.12 Z M 206.8 -5.1 C 206.8 -2.13 209.2 0.26 212.19 0.26 L 212.89 0.26 C 215.98 0.26 218.27 -2.03 218.27 -5.12 L 218.27 -13.08 C 218.27 -16.17 215.98 -18.46 212.89 -18.46 L 212.19 -18.46 C 209.2 -18.46 206.8 -16.07 206.8 -13.1 L 206.8 -12.17 C 206.8 -9.2 209.2 -6.81 212.19 -6.81 L 212.89 -6.81 C 213.93 -6.81 214.86 -7.07 215.67 -7.51 L 215.67 -5.12 C 215.67 -3.3 214.71 -2.34 212.89 -2.34 L 212.19 -2.34 C 210.47 -2.34 209.4 -3.41 209.4 -5.1 C 209.4 -5.82 208.83 -6.4 208.1 -6.4 C 207.38 -6.4 206.8 -5.82 206.8 -5.1 Z M 209.4 -12.17 L 209.4 -13.1 C 209.4 -14.79 210.47 -15.86 212.19 -15.86 L 212.89 -15.86 C 214.71 -15.86 215.67 -14.9 215.67 -13.08 L 215.67 -12.19 C 215.67 -10.37 214.71 -9.41 212.89 -9.41 L 212.19 -9.41 C 210.47 -9.41 209.4 -10.48 209.4 -12.17 Z M 233.51 -0.62 L 239.02 -16.46 C 239.07 -16.59 239.1 -16.72 239.1 -16.87 C 239.1 -17.6 238.52 -18.17 237.8 -18.17 L 237.77 -18.17 C 237.69 -18.2 237.61 -18.2 237.51 -18.2 L 228.93 -18.2 C 228.2 -18.2 227.63 -17.63 227.63 -16.9 C 227.63 -16.17 228.2 -15.6 228.93 -15.6 L 235.98 -15.6 L 231.06 -1.46 C 231.01 -1.33 230.98 -1.2 230.98 -1.04 C 230.98 -0.31 231.56 0.26 232.28 0.26 C 232.86 0.26 233.32 -0.1 233.51 -0.62 Z M 247.42 -6.01 L 247.42 -5.12 C 247.42 -2.03 249.7 0.26 252.8 0.26 L 253.5 0.26 C 256.49 0.26 258.88 -2.13 258.88 -5.1 L 258.88 -6.03 C 258.88 -7.77 258.05 -9.31 256.78 -10.3 C 257.5 -11.08 257.92 -12.12 257.92 -13.26 L 257.92 -13.99 C 257.92 -16.46 255.92 -18.46 253.42 -18.46 L 252.88 -18.46 C 250.3 -18.46 248.38 -16.54 248.38 -13.96 L 248.38 -13.29 C 248.38 -12.56 248.95 -11.99 249.68 -11.99 C 250.41 -11.99 250.98 -12.56 250.98 -13.29 L 250.98 -13.96 C 250.98 -15.26 251.58 -15.86 252.88 -15.86 L 253.42 -15.86 C 254.64 -15.86 255.32 -15.18 255.32 -13.99 L 255.32 -13.26 C 255.32 -12.06 254.64 -11.39 253.42 -11.39 L 252.8 -11.39 C 252.07 -11.39 251.5 -10.82 251.5 -10.09 C 251.5 -9.36 252.07 -8.79 252.8 -8.79 L 253.5 -8.79 C 255.22 -8.79 256.28 -7.72 256.28 -6.03 L 256.28 -5.1 C 256.28 -3.41 255.22 -2.34 253.5 -2.34 L 252.8 -2.34 C 250.98 -2.34 250.02 -3.3 250.02 -5.12 L 250.02 -6.01 C 250.02 -6.73 249.44 -7.31 248.72 -7.31 C 247.99 -7.31 247.42 -6.73 247.42 -6.01 Z" stroke-linecap="round" />
</g>
		<g transform="matrix(1 0 0 1 -0.07149999999990087 17.040399999999977)" id="tagline-aa8da82d-c228-4847-9973-7b878c32ec86-logo-path-1"  >
<path style="stroke: none; stroke-width: 0; stroke-dasharray: none; stroke-linecap: butt; stroke-dashoffset: 0; stroke-linejoin: miter; stroke-miterlimit: 4; fill: rgb(76,156,219); fill-rule: nonzero; opacity: 1;"  paint-order="stroke"  transform=" translate(-96.31500000000001, 9.1)" d="M 3.77 -1.3 L 3.77 -10.74 L 8.14 -0.78 C 8.35 -0.31 8.81 0 9.33 0 C 9.33 0 9.36 0 9.36 0 L 9.39 0 C 9.91 0 10.37 -0.31 10.58 -0.78 L 14.95 -10.74 L 14.95 -1.3 C 14.95 -0.57 15.52 0 16.25 0 C 16.98 0 17.55 -0.57 17.55 -1.3 L 17.55 -16.9 C 17.55 -17.63 16.98 -18.2 16.25 -18.2 C 16.25 -18.2 16.25 -18.2 16.25 -18.2 L 16.22 -18.2 C 15.7 -18.2 15.24 -17.89 15.03 -17.42 L 9.36 -4.5 L 3.69 -17.42 C 3.48 -17.89 3.02 -18.2 2.5 -18.2 C 2.5 -18.2 2.5 -18.2 2.5 -18.2 L 2.47 -18.2 C 1.74 -18.2 1.17 -17.63 1.17 -16.9 L 1.17 -1.3 C 1.17 -0.57 1.74 0 2.47 0 C 3.2 0 3.77 -0.57 3.77 -1.3 Z M 39.16 -13.1 C 39.16 -16.07 36.76 -18.46 33.77 -18.46 L 33.07 -18.46 C 29.98 -18.46 27.69 -16.17 27.69 -13.08 L 27.69 -5.12 C 27.69 -2.03 29.98 0.26 33.07 0.26 L 33.77 0.26 C 36.76 0.26 39.16 -2.13 39.16 -5.1 C 39.16 -5.82 38.58 -6.4 37.86 -6.4 C 37.13 -6.4 36.56 -5.82 36.56 -5.1 C 36.56 -3.41 35.49 -2.34 33.77 -2.34 L 33.07 -2.34 C 31.25 -2.34 30.29 -3.3 30.29 -5.12 L 30.29 -13.08 C 30.29 -14.9 31.25 -15.86 33.07 -15.86 L 33.77 -15.86 C 35.49 -15.86 36.56 -14.79 36.56 -13.1 C 36.56 -12.38 37.13 -11.8 37.86 -11.8 C 38.58 -11.8 39.16 -12.38 39.16 -13.1 Z M 70.98 -1.04 L 70.98 -17.16 C 70.98 -17.89 70.41 -18.46 69.68 -18.46 C 69.37 -18.46 69.08 -18.36 68.85 -18.17 L 65.1 -15.73 C 64.74 -15.5 64.51 -15.11 64.51 -14.64 C 64.51 -13.91 65.08 -13.34 65.81 -13.34 C 66.07 -13.34 66.3 -13.42 66.51 -13.55 L 68.38 -14.77 L 68.38 -1.04 C 68.38 -0.31 68.95 0.26 69.68 0.26 C 70.41 0.26 70.98 -0.31 70.98 -1.04 Z M 91.81 -5.1 L 91.81 -13.1 C 91.81 -16.07 89.41 -18.46 86.42 -18.46 L 85.72 -18.46 C 82.63 -18.46 80.34 -16.17 80.34 -13.08 L 80.34 -5.12 C 80.34 -2.03 82.63 0.26 85.72 0.26 L 86.42 0.26 C 89.41 0.26 91.81 -2.13 91.81 -5.1 Z M 82.94 -5.12 L 82.94 -13.08 C 82.94 -14.9 83.9 -15.86 85.72 -15.86 L 86.42 -15.86 C 88.14 -15.86 89.21 -14.79 89.21 -13.1 L 89.21 -5.1 C 89.21 -3.41 88.14 -2.34 86.42 -2.34 L 85.72 -2.34 C 83.9 -2.34 82.94 -3.3 82.94 -5.12 Z M 111.85 -6.76 L 110.76 -6.76 L 110.76 -10.32 C 110.76 -11.05 110.19 -11.62 109.46 -11.62 C 108.73 -11.62 108.16 -11.05 108.16 -10.32 L 108.16 -6.76 L 104.52 -6.76 L 109.15 -16.33 C 109.23 -16.51 109.28 -16.69 109.28 -16.9 C 109.28 -17.63 108.71 -18.2 107.98 -18.2 C 107.46 -18.2 107.02 -17.89 106.81 -17.47 L 101.3 -6.06 C 101.22 -5.88 101.17 -5.69 101.17 -5.49 C 101.17 -4.76 101.74 -4.19 102.47 -4.19 L 102.49 -4.19 C 102.57 -4.16 102.65 -4.16 102.75 -4.16 L 108.16 -4.16 L 108.16 -1.04 C 108.16 -0.31 108.73 0.26 109.46 0.26 C 110.19 0.26 110.76 -0.31 110.76 -1.04 L 110.76 -4.16 L 111.85 -4.16 C 112.58 -4.16 113.15 -4.73 113.15 -5.46 C 113.15 -6.19 112.58 -6.76 111.85 -6.76 Z M 133.98 -5.1 L 133.98 -13.1 C 133.98 -16.07 131.59 -18.46 128.6 -18.46 L 127.89 -18.46 C 124.8 -18.46 122.51 -16.17 122.51 -13.08 L 122.51 -5.12 C 122.51 -2.03 124.8 0.26 127.89 0.26 L 128.6 0.26 C 131.59 0.26 133.98 -2.13 133.98 -5.1 Z M 125.11 -5.12 L 125.11 -13.08 C 125.11 -14.9 126.07 -15.86 127.89 -15.86 L 128.6 -15.86 C 130.31 -15.86 131.38 -14.79 131.38 -13.1 L 131.38 -5.1 C 131.38 -3.41 130.31 -2.34 128.6 -2.34 L 127.89 -2.34 C 126.07 -2.34 125.11 -3.3 125.11 -5.12 Z M 149.81 -1.04 L 149.81 -17.16 C 149.81 -17.89 149.24 -18.46 148.51 -18.46 C 148.2 -18.46 147.91 -18.36 147.68 -18.17 L 143.94 -15.73 C 143.57 -15.5 143.34 -15.11 143.34 -14.64 C 143.34 -13.91 143.91 -13.34 144.64 -13.34 C 144.9 -13.34 145.13 -13.42 145.34 -13.55 L 147.21 -14.77 L 147.21 -1.04 C 147.21 -0.31 147.78 0.26 148.51 0.26 C 149.24 0.26 149.81 -0.31 149.81 -1.04 Z M 159.17 -5.1 C 159.17 -2.13 161.56 0.26 164.55 0.26 L 165.26 0.26 C 168.35 0.26 170.64 -2.03 170.64 -5.12 L 170.64 -13.08 C 170.64 -16.17 168.35 -18.46 165.26 -18.46 L 164.55 -18.46 C 161.56 -18.46 159.17 -16.07 159.17 -13.1 L 159.17 -12.17 C 159.17 -9.2 161.56 -6.81 164.55 -6.81 L 165.26 -6.81 C 166.3 -6.81 167.23 -7.07 168.04 -7.51 L 168.04 -5.12 C 168.04 -3.3 167.08 -2.34 165.26 -2.34 L 164.55 -2.34 C 162.84 -2.34 161.77 -3.41 161.77 -5.1 C 161.77 -5.82 161.2 -6.4 160.47 -6.4 C 159.74 -6.4 159.17 -5.82 159.17 -5.1 Z M 161.77 -12.17 L 161.77 -13.1 C 161.77 -14.79 162.84 -15.86 164.55 -15.86 L 165.26 -15.86 C 167.08 -15.86 168.04 -14.9 168.04 -13.08 L 168.04 -12.19 C 168.04 -10.37 167.08 -9.41 165.26 -9.41 L 164.55 -9.41 C 162.84 -9.41 161.77 -10.48 161.77 -12.17 Z M 185.87 -0.62 L 191.39 -16.46 C 191.44 -16.59 191.46 -16.72 191.46 -16.87 C 191.46 -17.6 190.89 -18.17 190.16 -18.17 L 190.14 -18.17 C 190.06 -18.2 189.98 -18.2 189.88 -18.2 L 181.3 -18.2 C 180.57 -18.2 180 -17.63 180 -16.9 C 180 -16.17 180.57 -15.6 181.3 -15.6 L 188.34 -15.6 L 183.43 -1.46 C 183.38 -1.33 183.35 -1.2 183.35 -1.04 C 183.35 -0.31 183.92 0.26 184.65 0.26 C 185.22 0.26 185.69 -0.1 185.87 -0.62 Z" stroke-linecap="round" />
</g>
</g>
</g>
</svg>